<svg xmlns="http://www.w3.org/2000/svg" width="1440" height="1024" fill="none" viewBox="0 0 1440 1024"><path fill="#0D091D" d="M0 -1.57606C0 -5.12394 2.87613 -8 6.42401 -8H1491.58C1495.12 -8 1498 -5.12387 1498 -1.57599V1017.58C1498 1021.12 1495.12 1024 1491.58 1024H6.42399C2.8761 1024 0 1021.12 0 1017.58V-1.57606Z"/><path fill="url(#paint0_radial_2_3)" d="M0 -1.57606C0 -5.12394 2.87613 -8 6.42401 -8H1491.58C1495.12 -8 1498 -5.12387 1498 -1.57599V1017.58C1498 1021.12 1495.12 1024 1491.58 1024H6.42399C2.8761 1024 0 1021.12 0 1017.58V-1.57606Z"/><path fill="url(#paint1_radial_2_3)" d="M0 -1.57606C0 -5.12394 2.87613 -8 6.42401 -8H1491.58C1495.12 -8 1498 -5.12387 1498 -1.57599V1017.58C1498 1021.12 1495.12 1024 1491.58 1024H6.42399C2.8761 1024 0 1021.12 0 1017.58V-1.57606Z"/><defs><radialGradient id="paint0_radial_2_3" cx="0" cy="0" r="1" gradientTransform="translate(168.5 -585) rotate(52.9849) scale(2159.95 2107.96)" gradientUnits="userSpaceOnUse"><stop offset=".546" stop-color="#111827"/><stop offset=".969" stop-color="#111827" stop-opacity=".069"/><stop offset="1" stop-color="#1C1C1C" stop-opacity="0"/></radialGradient><radialGradient id="paint1_radial_2_3" cx="0" cy="0" r="1" gradientTransform="translate(2017.5 1442) rotate(-168.414) scale(2688.78 1930.48)" gradientUnits="userSpaceOnUse"><stop stop-color="#FB008B"/><stop offset=".724" stop-color="#111827" stop-opacity=".18"/></radialGradient></defs></svg>